<svg width="200" height="300" xmlns="http://www.w3.org/2000/svg"><rect width="100%" height="100%" fill="saddlebrown"/><defs><pattern id="leatherTexture" patternUnits="userSpaceOnUse" width="20" height="20"><path d="M 0 0 L 20 20" stroke="sienna" stroke-width="0.5" opacity="0.4"/><path d="M 20 0 L 0 20" stroke="sienna" stroke-width="0.5" opacity="0.4"/><circle cx="10" cy="10" r="4" fill="saddlebrown" opacity="0.3"/><circle cx="5" cy="15" r="2" fill="sienna" opacity="0.3"/><circle cx="15" cy="5" r="2" fill="sienna" opacity="0.3"/></pattern></defs><rect width="100%" height="100%" fill="url(#leatherTexture)" /><defs><radialGradient id="agingGradient" cx="50%" cy="50%" r="50%" fx="50%" fy="50%"><stop offset="0%" style="stop-color:rgba(139, 69, 19, 0.8); stop-opacity:1" /><stop offset="100%" style="stop-color:rgba(139, 69, 19, 0.2); stop-opacity:0.7" /></radialGradient></defs><rect width="100%" height="100%" fill="url(#agingGradient)" /><defs><pattern id="stainTexture" patternUnits="userSpaceOnUse" width="30" height="30"><circle cx="10" cy="10" r="5" fill="rgba(105, 55, 5, 0.3)" /><circle cx="20" cy="20" r="3" fill="rgba(85, 45, 5, 0.2)" /><circle cx="15" cy="5" r="4" fill="rgba(125, 65, 15, 0.3)" /></pattern></defs><rect width="100%" height="100%" fill="url(#stainTexture)" /><path d="M 0 0 H 200 V 10 Q 100 30 0 10 Z" fill="rgba(0, 0, 0, 0.3)" /><path d="M 0 290 H 200 V 300 Q 100 270 0 290 Z" fill="rgba(0, 0, 0, 0.3)" /><path d="M 0 0 V 300 H 10 Q 30 150 10 0 Z" fill="rgba(0, 0, 0, 0.3)" /><path d="M 190 0 V 300 H 200 Q 170 150 190 0 Z" fill="rgba(0, 0, 0, 0.3)" /></svg>